<?xml version="1.0" encoding="UTF-8" standalone="no"?>
<!DOCTYPE svg PUBLIC "-//W3C//DTD SVG 1.1//EN"
 "http://www.w3.org/Graphics/SVG/1.1/DTD/svg11.dtd">
<!-- Generated by graphviz version 2.36.0 (20140111.2315)
 -->
<!-- Title: request Pages: 1 -->
<svg width="720pt" height="448pt"
 viewBox="0.00 0.00 720.00 448.00" xmlns="http://www.w3.org/2000/svg" xmlns:xlink="http://www.w3.org/1999/xlink">
<g id="graph0" class="graph" transform="scale(1 1) rotate(0) translate(4 444)">
<title>request</title>
<polygon fill="white" stroke="none" points="-4,4 -4,-444 716,-444 716,4 -4,4"/>
<!-- CompMatrix170 -->
<g id="node1" class="node"><title>CompMatrix170</title>
<path fill="white" stroke="black" d="M137.662,-83C137.662,-83 550.338,-83 550.338,-83 556.338,-83 562.338,-89 562.338,-95 562.338,-95 562.338,-137 562.338,-137 562.338,-143 556.338,-149 550.338,-149 550.338,-149 137.662,-149 137.662,-149 131.662,-149 125.662,-143 125.662,-137 125.662,-137 125.662,-95 125.662,-95 125.662,-89 131.662,-83 137.662,-83"/>
<text text-anchor="middle" x="162.052" y="-133.8" font-family="Times,serif" font-size="14.00">input_0_3</text>
<polyline fill="none" stroke="black" points="198.441,-127 198.441,-149 "/>
<text text-anchor="middle" x="234.831" y="-133.8" font-family="Times,serif" font-size="14.00">input_1_2</text>
<polyline fill="none" stroke="black" points="271.221,-127 271.221,-149 "/>
<text text-anchor="middle" x="307.61" y="-133.8" font-family="Times,serif" font-size="14.00">input_0_2</text>
<polyline fill="none" stroke="black" points="344,-127 344,-149 "/>
<text text-anchor="middle" x="380.39" y="-133.8" font-family="Times,serif" font-size="14.00">input_0_1</text>
<polyline fill="none" stroke="black" points="416.779,-127 416.779,-149 "/>
<text text-anchor="middle" x="453.169" y="-133.8" font-family="Times,serif" font-size="14.00">input_2_3</text>
<polyline fill="none" stroke="black" points="489.559,-127 489.559,-149 "/>
<text text-anchor="middle" x="525.948" y="-133.8" font-family="Times,serif" font-size="14.00">input_1_3</text>
<polyline fill="none" stroke="black" points="125.662,-127 562.338,-127 "/>
<text text-anchor="middle" x="344" y="-111.8" font-family="Times,serif" font-size="14.00">CompMatrix17</text>
<polyline fill="none" stroke="black" points="125.662,-105 562.338,-105 "/>
<text text-anchor="middle" x="343.552" y="-89.8" font-family="Times,serif" font-size="14.00">output</text>
</g>
<!-- MaxClique2511 -->
<g id="node12" class="node"><title>MaxClique2511</title>
<path fill="white" stroke="black" d="M309.503,-1C309.503,-1 378.497,-1 378.497,-1 384.497,-1 390.497,-7 390.497,-13 390.497,-13 390.497,-33 390.497,-33 390.497,-39 384.497,-45 378.497,-45 378.497,-45 309.503,-45 309.503,-45 303.503,-45 297.503,-39 297.503,-33 297.503,-33 297.503,-13 297.503,-13 297.503,-7 303.503,-1 309.503,-1"/>
<text text-anchor="middle" x="343.776" y="-29.8" font-family="Times,serif" font-size="14.00">matrix</text>
<polyline fill="none" stroke="black" points="297.503,-23 390.497,-23 "/>
<text text-anchor="middle" x="344" y="-7.8" font-family="Times,serif" font-size="14.00">MaxClique25</text>
</g>
<!-- CompMatrix170&#45;&gt;MaxClique2511 -->
<g id="edge1" class="edge"><title>CompMatrix170:out_output&#45;&gt;MaxClique2511:in_matrix</title>
<path fill="none" stroke="black" d="M344,-82C344,-70 344,-64.75 344,-56.125"/>
<polygon fill="black" stroke="black" points="347.5,-56 344,-46 340.5,-56 347.5,-56"/>
</g>
<!-- CorrCoef231 -->
<g id="node2" class="node"><title>CorrCoef231</title>
<path fill="white" stroke="black" d="M621.221,-187C621.221,-187 700.779,-187 700.779,-187 706.779,-187 712.779,-193 712.779,-199 712.779,-199 712.779,-241 712.779,-241 712.779,-247 706.779,-253 700.779,-253 700.779,-253 621.221,-253 621.221,-253 615.221,-253 609.221,-247 609.221,-241 609.221,-241 609.221,-199 609.221,-199 609.221,-193 615.221,-187 621.221,-187"/>
<text text-anchor="middle" x="635.11" y="-237.8" font-family="Times,serif" font-size="14.00">input1</text>
<polyline fill="none" stroke="black" points="661,-231 661,-253 "/>
<text text-anchor="middle" x="686.89" y="-237.8" font-family="Times,serif" font-size="14.00">input2</text>
<polyline fill="none" stroke="black" points="609.221,-231 712.779,-231 "/>
<text text-anchor="middle" x="661" y="-215.8" font-family="Times,serif" font-size="14.00">CorrCoef23</text>
<polyline fill="none" stroke="black" points="609.221,-209 712.779,-209 "/>
<text text-anchor="middle" x="660.61" y="-193.8" font-family="Times,serif" font-size="14.00">output</text>
</g>
<!-- CorrCoef231&#45;&gt;CompMatrix170 -->
<g id="edge2" class="edge"><title>CorrCoef231:out_output&#45;&gt;CompMatrix170:in_input_1_3</title>
<path fill="none" stroke="black" d="M608,-198C607.95,-198 581.637,-162.829 569.276,-146.343"/>
<polygon fill="black" stroke="black" points="571.808,-143.887 563,-138 566.214,-148.095 571.808,-143.887"/>
</g>
<!-- Source142 -->
<g id="node3" class="node"><title>Source142</title>
<path fill="white" stroke="black" d="M315.562,-291C315.562,-291 360.438,-291 360.438,-291 366.438,-291 372.438,-297 372.438,-303 372.438,-303 372.438,-345 372.438,-345 372.438,-351 366.438,-357 360.438,-357 360.438,-357 315.562,-357 315.562,-357 309.562,-357 303.562,-351 303.562,-345 303.562,-345 303.562,-303 303.562,-303 303.562,-297 309.562,-291 315.562,-291"/>
<text text-anchor="middle" x="337.61" y="-341.8" font-family="Times,serif" font-size="14.00">iterations</text>
<polyline fill="none" stroke="black" points="303.562,-335 372.438,-335 "/>
<text text-anchor="middle" x="338" y="-319.8" font-family="Times,serif" font-size="14.00">Source14</text>
<polyline fill="none" stroke="black" points="303.562,-313 372.438,-313 "/>
<text text-anchor="middle" x="337.952" y="-297.8" font-family="Times,serif" font-size="14.00">output</text>
</g>
<!-- CorrCoef203 -->
<g id="node4" class="node"><title>CorrCoef203</title>
<path fill="white" stroke="black" d="M377.221,-187C377.221,-187 456.779,-187 456.779,-187 462.779,-187 468.779,-193 468.779,-199 468.779,-199 468.779,-241 468.779,-241 468.779,-247 462.779,-253 456.779,-253 456.779,-253 377.221,-253 377.221,-253 371.221,-253 365.221,-247 365.221,-241 365.221,-241 365.221,-199 365.221,-199 365.221,-193 371.221,-187 377.221,-187"/>
<text text-anchor="middle" x="391.11" y="-237.8" font-family="Times,serif" font-size="14.00">input2</text>
<polyline fill="none" stroke="black" points="417,-231 417,-253 "/>
<text text-anchor="middle" x="442.89" y="-237.8" font-family="Times,serif" font-size="14.00">input1</text>
<polyline fill="none" stroke="black" points="365.221,-231 468.779,-231 "/>
<text text-anchor="middle" x="417" y="-215.8" font-family="Times,serif" font-size="14.00">CorrCoef20</text>
<polyline fill="none" stroke="black" points="365.221,-209 468.779,-209 "/>
<text text-anchor="middle" x="416.61" y="-193.8" font-family="Times,serif" font-size="14.00">output</text>
</g>
<!-- Source142&#45;&gt;CorrCoef203 -->
<g id="edge5" class="edge"><title>Source142:out_output&#45;&gt;CorrCoef203:in_input1</title>
<path fill="none" stroke="black" d="M373,-302C407.039,-302 436.644,-293.632 442.102,-264.282"/>
<polygon fill="black" stroke="black" points="445.616,-264.267 443,-254 438.643,-263.657 445.616,-264.267"/>
</g>
<!-- CorrCoef185 -->
<g id="node6" class="node"><title>CorrCoef185</title>
<path fill="white" stroke="black" d="M133.221,-187C133.221,-187 212.779,-187 212.779,-187 218.779,-187 224.779,-193 224.779,-199 224.779,-199 224.779,-241 224.779,-241 224.779,-247 218.779,-253 212.779,-253 212.779,-253 133.221,-253 133.221,-253 127.221,-253 121.221,-247 121.221,-241 121.221,-241 121.221,-199 121.221,-199 121.221,-193 127.221,-187 133.221,-187"/>
<text text-anchor="middle" x="147.11" y="-237.8" font-family="Times,serif" font-size="14.00">input2</text>
<polyline fill="none" stroke="black" points="173,-231 173,-253 "/>
<text text-anchor="middle" x="198.89" y="-237.8" font-family="Times,serif" font-size="14.00">input1</text>
<polyline fill="none" stroke="black" points="121.221,-231 224.779,-231 "/>
<text text-anchor="middle" x="173" y="-215.8" font-family="Times,serif" font-size="14.00">CorrCoef18</text>
<polyline fill="none" stroke="black" points="121.221,-209 224.779,-209 "/>
<text text-anchor="middle" x="172.61" y="-193.8" font-family="Times,serif" font-size="14.00">output</text>
</g>
<!-- Source142&#45;&gt;CorrCoef185 -->
<g id="edge4" class="edge"><title>Source142:out_output&#45;&gt;CorrCoef185:in_input1</title>
<path fill="none" stroke="black" d="M303,-302C296.333,-302 298.951,-294.465 294,-290 270.906,-269.172 256.507,-275.461 234,-254 232.84,-252.894 232.161,-251.591 231.694,-250.259"/>
<polygon fill="black" stroke="black" points="234.558,-248.246 226,-242 228.795,-252.22 234.558,-248.246"/>
</g>
<!-- CorrCoef158 -->
<g id="node9" class="node"><title>CorrCoef158</title>
<path fill="white" stroke="black" d="M255.221,-187C255.221,-187 334.779,-187 334.779,-187 340.779,-187 346.779,-193 346.779,-199 346.779,-199 346.779,-241 346.779,-241 346.779,-247 340.779,-253 334.779,-253 334.779,-253 255.221,-253 255.221,-253 249.221,-253 243.221,-247 243.221,-241 243.221,-241 243.221,-199 243.221,-199 243.221,-193 249.221,-187 255.221,-187"/>
<text text-anchor="middle" x="269.11" y="-237.8" font-family="Times,serif" font-size="14.00">input2</text>
<polyline fill="none" stroke="black" points="295,-231 295,-253 "/>
<text text-anchor="middle" x="320.89" y="-237.8" font-family="Times,serif" font-size="14.00">input1</text>
<polyline fill="none" stroke="black" points="243.221,-231 346.779,-231 "/>
<text text-anchor="middle" x="295" y="-215.8" font-family="Times,serif" font-size="14.00">CorrCoef15</text>
<polyline fill="none" stroke="black" points="243.221,-209 346.779,-209 "/>
<text text-anchor="middle" x="294.61" y="-193.8" font-family="Times,serif" font-size="14.00">output</text>
</g>
<!-- Source142&#45;&gt;CorrCoef158 -->
<g id="edge3" class="edge"><title>Source142:out_output&#45;&gt;CorrCoef158:in_input1</title>
<path fill="none" stroke="black" d="M303,-302C297.648,-302 302.613,-295.169 304,-290 307.547,-276.782 315.777,-273.06 319.324,-263.865"/>
<polygon fill="black" stroke="black" points="322.775,-264.445 321,-254 315.874,-263.272 322.775,-264.445"/>
</g>
<!-- CorrCoef203&#45;&gt;CompMatrix170 -->
<g id="edge6" class="edge"><title>CorrCoef203:out_output&#45;&gt;CompMatrix170:in_input_0_3</title>
<path fill="none" stroke="black" d="M364,-198C357.333,-198 360.663,-189.518 355,-186 321.124,-164.957 187.924,-188.757 165.281,-159.684"/>
<polygon fill="black" stroke="black" points="168.524,-158.348 162,-150 161.894,-160.594 168.524,-158.348"/>
</g>
<!-- CorrCoef224 -->
<g id="node5" class="node"><title>CorrCoef224</title>
<path fill="white" stroke="black" d="M11.2207,-187C11.2207,-187 90.7793,-187 90.7793,-187 96.7793,-187 102.779,-193 102.779,-199 102.779,-199 102.779,-241 102.779,-241 102.779,-247 96.7793,-253 90.7793,-253 90.7793,-253 11.2207,-253 11.2207,-253 5.2207,-253 -0.779297,-247 -0.779297,-241 -0.779297,-241 -0.779297,-199 -0.779297,-199 -0.779297,-193 5.2207,-187 11.2207,-187"/>
<text text-anchor="middle" x="25.1104" y="-237.8" font-family="Times,serif" font-size="14.00">input1</text>
<polyline fill="none" stroke="black" points="51,-231 51,-253 "/>
<text text-anchor="middle" x="76.8896" y="-237.8" font-family="Times,serif" font-size="14.00">input2</text>
<polyline fill="none" stroke="black" points="-0.779297,-231 102.779,-231 "/>
<text text-anchor="middle" x="51" y="-215.8" font-family="Times,serif" font-size="14.00">CorrCoef22</text>
<polyline fill="none" stroke="black" points="-0.779297,-209 102.779,-209 "/>
<text text-anchor="middle" x="50.6104" y="-193.8" font-family="Times,serif" font-size="14.00">output</text>
</g>
<!-- CorrCoef224&#45;&gt;CompMatrix170 -->
<g id="edge7" class="edge"><title>CorrCoef224:out_output&#45;&gt;CompMatrix170:in_input_1_2</title>
<path fill="none" stroke="black" d="M103,-198C109.667,-198 106.52,-189.797 112,-186 155.617,-155.774 224.722,-200.06 233.966,-160.197"/>
<polygon fill="black" stroke="black" points="237.473,-160.302 235,-150 230.509,-159.596 237.473,-160.302"/>
</g>
<!-- CorrCoef185&#45;&gt;CompMatrix170 -->
<g id="edge8" class="edge"><title>CorrCoef185:out_output&#45;&gt;CompMatrix170:in_input_0_2</title>
<path fill="none" stroke="black" d="M225,-198C231.667,-198 228.859,-190.244 234,-186 259.122,-165.265 298.193,-181.92 306.439,-159.973"/>
<polygon fill="black" stroke="black" points="309.912,-160.421 308,-150 302.996,-159.339 309.912,-160.421"/>
</g>
<!-- Source166 -->
<g id="node7" class="node"><title>Source166</title>
<path fill="white" stroke="black" d="M228.562,-291C228.562,-291 273.438,-291 273.438,-291 279.438,-291 285.438,-297 285.438,-303 285.438,-303 285.438,-345 285.438,-345 285.438,-351 279.438,-357 273.438,-357 273.438,-357 228.562,-357 228.562,-357 222.562,-357 216.562,-351 216.562,-345 216.562,-345 216.562,-303 216.562,-303 216.562,-297 222.562,-291 228.562,-291"/>
<text text-anchor="middle" x="250.61" y="-341.8" font-family="Times,serif" font-size="14.00">iterations</text>
<polyline fill="none" stroke="black" points="216.562,-335 285.438,-335 "/>
<text text-anchor="middle" x="251" y="-319.8" font-family="Times,serif" font-size="14.00">Source16</text>
<polyline fill="none" stroke="black" points="216.562,-313 285.438,-313 "/>
<text text-anchor="middle" x="250.952" y="-297.8" font-family="Times,serif" font-size="14.00">output</text>
</g>
<!-- Source166&#45;&gt;CorrCoef231 -->
<g id="edge10" class="edge"><title>Source166:out_output&#45;&gt;CorrCoef231:in_input1</title>
<path fill="none" stroke="black" d="M286,-302C292.667,-302 289.223,-293.327 295,-290 412.896,-222.092 481.104,-321.908 599,-254 600.625,-253.064 601.52,-251.705 602.116,-250.236"/>
<polygon fill="black" stroke="black" points="605.035,-252.171 608,-242 599.339,-248.102 605.035,-252.171"/>
</g>
<!-- Source166&#45;&gt;CorrCoef224 -->
<g id="edge11" class="edge"><title>Source166:out_output&#45;&gt;CorrCoef224:in_input1</title>
<path fill="none" stroke="black" d="M216,-302C209.333,-302 212.644,-293.549 207,-290 175.233,-270.027 50.526,-290.742 28.374,-263.541"/>
<polygon fill="black" stroke="black" points="31.6338,-262.261 25,-254 25.0343,-264.595 31.6338,-262.261"/>
</g>
<!-- Source166&#45;&gt;CorrCoef158 -->
<g id="edge9" class="edge"><title>Source166:out_output&#45;&gt;CorrCoef158:in_input2</title>
<path fill="none" stroke="black" d="M286,-302C291.352,-302 286.328,-295.185 285,-290 281.675,-277.014 274.062,-273.074 270.677,-264.082"/>
<polygon fill="black" stroke="black" points="274.093,-263.29 269,-254 267.188,-264.439 274.093,-263.29"/>
</g>
<!-- Source217 -->
<g id="node8" class="node"><title>Source217</title>
<path fill="white" stroke="black" d="M454.562,-291C454.562,-291 499.438,-291 499.438,-291 505.438,-291 511.438,-297 511.438,-303 511.438,-303 511.438,-345 511.438,-345 511.438,-351 505.438,-357 499.438,-357 499.438,-357 454.562,-357 454.562,-357 448.562,-357 442.562,-351 442.562,-345 442.562,-345 442.562,-303 442.562,-303 442.562,-297 448.562,-291 454.562,-291"/>
<text text-anchor="middle" x="476.61" y="-341.8" font-family="Times,serif" font-size="14.00">iterations</text>
<polyline fill="none" stroke="black" points="442.562,-335 511.438,-335 "/>
<text text-anchor="middle" x="477" y="-319.8" font-family="Times,serif" font-size="14.00">Source21</text>
<polyline fill="none" stroke="black" points="442.562,-313 511.438,-313 "/>
<text text-anchor="middle" x="476.952" y="-297.8" font-family="Times,serif" font-size="14.00">output</text>
</g>
<!-- Source217&#45;&gt;CorrCoef231 -->
<g id="edge14" class="edge"><title>Source217:out_output&#45;&gt;CorrCoef231:in_input2</title>
<path fill="none" stroke="black" d="M512,-302C548.86,-302 664.55,-295.588 684.162,-263.689"/>
<polygon fill="black" stroke="black" points="687.547,-264.581 687,-254 680.83,-262.613 687.547,-264.581"/>
</g>
<!-- Source217&#45;&gt;CorrCoef203 -->
<g id="edge13" class="edge"><title>Source217:out_output&#45;&gt;CorrCoef203:in_input2</title>
<path fill="none" stroke="black" d="M442,-302C414.399,-302 395.647,-288.733 391.753,-264.026"/>
<polygon fill="black" stroke="black" points="395.239,-263.71 391,-254 388.258,-264.234 395.239,-263.71"/>
</g>
<!-- CorrCoef2410 -->
<g id="node11" class="node"><title>CorrCoef2410</title>
<path fill="white" stroke="black" d="M499.221,-187C499.221,-187 578.779,-187 578.779,-187 584.779,-187 590.779,-193 590.779,-199 590.779,-199 590.779,-241 590.779,-241 590.779,-247 584.779,-253 578.779,-253 578.779,-253 499.221,-253 499.221,-253 493.221,-253 487.221,-247 487.221,-241 487.221,-241 487.221,-199 487.221,-199 487.221,-193 493.221,-187 499.221,-187"/>
<text text-anchor="middle" x="513.11" y="-237.8" font-family="Times,serif" font-size="14.00">input2</text>
<polyline fill="none" stroke="black" points="539,-231 539,-253 "/>
<text text-anchor="middle" x="564.89" y="-237.8" font-family="Times,serif" font-size="14.00">input1</text>
<polyline fill="none" stroke="black" points="487.221,-231 590.779,-231 "/>
<text text-anchor="middle" x="539" y="-215.8" font-family="Times,serif" font-size="14.00">CorrCoef24</text>
<polyline fill="none" stroke="black" points="487.221,-209 590.779,-209 "/>
<text text-anchor="middle" x="538.61" y="-193.8" font-family="Times,serif" font-size="14.00">output</text>
</g>
<!-- Source217&#45;&gt;CorrCoef2410 -->
<g id="edge12" class="edge"><title>Source217:out_output&#45;&gt;CorrCoef2410:in_input2</title>
<path fill="none" stroke="black" d="M512,-302C530.087,-302 518.229,-282.843 514.197,-264.01"/>
<polygon fill="black" stroke="black" points="517.663,-263.514 513,-254 510.712,-264.345 517.663,-263.514"/>
</g>
<!-- CorrCoef158&#45;&gt;CompMatrix170 -->
<g id="edge15" class="edge"><title>CorrCoef158:out_output&#45;&gt;CompMatrix170:in_input_0_1</title>
<path fill="none" stroke="black" d="M347,-198C347.594,-198 365.113,-172.55 374.378,-158.709"/>
<polygon fill="black" stroke="black" points="377.516,-160.3 380,-150 371.636,-156.503 377.516,-160.3"/>
</g>
<!-- Start139 -->
<g id="node10" class="node"><title>Start139</title>
<path fill="white" stroke="black" d="M277.779,-395C277.779,-395 310.221,-395 310.221,-395 316.221,-395 322.221,-401 322.221,-407 322.221,-407 322.221,-427 322.221,-427 322.221,-433 316.221,-439 310.221,-439 310.221,-439 277.779,-439 277.779,-439 271.779,-439 265.779,-433 265.779,-427 265.779,-427 265.779,-407 265.779,-407 265.779,-401 271.779,-395 277.779,-395"/>
<text text-anchor="middle" x="294" y="-423.8" font-family="Times,serif" font-size="14.00">Start13</text>
<polyline fill="none" stroke="black" points="265.779,-417 322.221,-417 "/>
<text text-anchor="middle" x="293.669" y="-401.8" font-family="Times,serif" font-size="14.00">output</text>
</g>
<!-- Start139&#45;&gt;Source142 -->
<g id="edge19" class="edge"><title>Start139:out_output&#45;&gt;Source142:in_iterations</title>
<path fill="none" stroke="black" d="M294,-394C294,-386.285 293.064,-365.279 296.422,-353.779"/>
<polygon fill="black" stroke="black" points="299.216,-355.896 303,-346 293.871,-351.376 299.216,-355.896"/>
</g>
<!-- Start139&#45;&gt;Source166 -->
<g id="edge18" class="edge"><title>Start139:out_output&#45;&gt;Source166:in_iterations</title>
<path fill="none" stroke="black" d="M294,-394C294,-386.312 295.422,-365.295 292.359,-353.786"/>
<polygon fill="black" stroke="black" points="295.036,-351.532 286,-346 289.614,-355.959 295.036,-351.532"/>
</g>
<!-- Start139&#45;&gt;Source217 -->
<g id="edge16" class="edge"><title>Start139:out_output&#45;&gt;Source217:in_iterations</title>
<path fill="none" stroke="black" d="M323,-406C378.645,-406 382.488,-353.046 431.861,-346.633"/>
<polygon fill="black" stroke="black" points="432.238,-350.117 442,-346 431.801,-343.13 432.238,-350.117"/>
</g>
<!-- Source1912 -->
<g id="node13" class="node"><title>Source1912</title>
<path fill="white" stroke="black" d="M141.562,-291C141.562,-291 186.438,-291 186.438,-291 192.438,-291 198.438,-297 198.438,-303 198.438,-303 198.438,-345 198.438,-345 198.438,-351 192.438,-357 186.438,-357 186.438,-357 141.562,-357 141.562,-357 135.562,-357 129.562,-351 129.562,-345 129.562,-345 129.562,-303 129.562,-303 129.562,-297 135.562,-291 141.562,-291"/>
<text text-anchor="middle" x="163.61" y="-341.8" font-family="Times,serif" font-size="14.00">iterations</text>
<polyline fill="none" stroke="black" points="129.562,-335 198.438,-335 "/>
<text text-anchor="middle" x="164" y="-319.8" font-family="Times,serif" font-size="14.00">Source19</text>
<polyline fill="none" stroke="black" points="129.562,-313 198.438,-313 "/>
<text text-anchor="middle" x="163.952" y="-297.8" font-family="Times,serif" font-size="14.00">output</text>
</g>
<!-- Start139&#45;&gt;Source1912 -->
<g id="edge17" class="edge"><title>Start139:out_output&#45;&gt;Source1912:in_iterations</title>
<path fill="none" stroke="black" d="M265,-406C231.881,-406 230.749,-382.07 208,-358 206.784,-356.713 206.049,-355.263 205.501,-353.828"/>
<polygon fill="black" stroke="black" points="208.081,-351.457 199,-346 202.696,-355.929 208.081,-351.457"/>
</g>
<!-- CorrCoef2410&#45;&gt;CompMatrix170 -->
<g id="edge20" class="edge"><title>CorrCoef2410:out_output&#45;&gt;CompMatrix170:in_input_2_3</title>
<path fill="none" stroke="black" d="M486,-198C485.406,-198 467.887,-172.55 458.622,-158.709"/>
<polygon fill="black" stroke="black" points="461.364,-156.503 453,-150 455.484,-160.3 461.364,-156.503"/>
</g>
<!-- Source1912&#45;&gt;CorrCoef224 -->
<g id="edge22" class="edge"><title>Source1912:out_output&#45;&gt;CorrCoef224:in_input2</title>
<path fill="none" stroke="black" d="M129,-302C123.47,-302 115.987,-266.829 109.542,-250.343"/>
<polygon fill="black" stroke="black" points="112.449,-248.393 104,-242 106.618,-252.266 112.449,-248.393"/>
</g>
<!-- Source1912&#45;&gt;CorrCoef185 -->
<g id="edge23" class="edge"><title>Source1912:out_output&#45;&gt;CorrCoef185:in_input2</title>
<path fill="none" stroke="black" d="M164,-290C164,-276.315 153.831,-272.848 149.222,-263.793"/>
<polygon fill="black" stroke="black" points="152.626,-262.977 147,-254 145.8,-264.527 152.626,-262.977"/>
</g>
<!-- Source1912&#45;&gt;CorrCoef2410 -->
<g id="edge21" class="edge"><title>Source1912:out_output&#45;&gt;CorrCoef2410:in_input1</title>
<path fill="none" stroke="black" d="M199,-302C205.667,-302 202.194,-293.277 208,-290 239.938,-271.971 515.229,-290.386 559.113,-262.414"/>
<polygon fill="black" stroke="black" points="562.135,-264.2 565,-254 556.399,-260.187 562.135,-264.2"/>
</g>
</g>
</svg>
